<svg width="320" height="351" xmlns="http://www.w3.org/2000/svg">
  <g fill="none" fill-rule="evenodd">
    <path fill="#1C212F" d="M0 0h320v351H0z"/>
    <path d="M202.921 77.5H117.08L160 34.579 202.921 77.5zM258 132.579L301.421 176 258 219.421V132.58zM203.921 273.5L160 317.421 116.079 273.5h87.842zM62 219.421L18.579 176 62 132.579v86.842z" fill-opacity=".233" fill="#FFF" opacity=".69"/>
    <path fill="#0A101F" d="M10.774 10.8h4.31v4.32h-4.31zM18.316 10.8h4.31v4.32h-4.31zM25.859 10.8h4.31v4.32h-4.31zM33.401 10.8h4.31v4.32h-4.31zM40.943 10.8h4.31v4.32h-4.31zM10.774 18.36h4.31v4.32h-4.31zM18.316 18.36h4.31v4.32h-4.31zM25.859 18.36h4.31v4.32h-4.31zM33.401 18.36h4.31v4.32h-4.31zM40.943 18.36h4.31v4.32h-4.31zM10.774 25.92h4.31v4.32h-4.31zM18.316 25.92h4.31v4.32h-4.31zM25.859 25.92h4.31v4.32h-4.31zM33.401 25.92h4.31v4.32h-4.31zM40.943 25.92h4.31v4.32h-4.31zM10.774 33.48h4.31v4.32h-4.31zM18.316 33.48h4.31v4.32h-4.31zM25.859 33.48h4.31v4.32h-4.31zM33.401 33.48h4.31v4.32h-4.31zM40.943 33.48h4.31v4.32h-4.31zM10.774 41.04h4.31v4.32h-4.31zM18.316 41.04h4.31v4.32h-4.31zM25.859 41.04h4.31v4.32h-4.31zM33.401 41.04h4.31v4.32h-4.31zM40.943 41.04h4.31v4.32h-4.31zM10.774 48.6h4.31v4.32h-4.31zM18.316 48.6h4.31v4.32h-4.31zM25.859 48.6h4.31v4.32h-4.31zM33.401 48.6h4.31v4.32h-4.31zM40.943 48.6h4.31v4.32h-4.31zM48.485 10.8h4.31v4.32h-4.31zM56.027 10.8h4.31v4.32h-4.31zM63.569 10.8h4.31v4.32h-4.31zM71.111 10.8h4.31v4.32h-4.31zM78.653 10.8h4.31v4.32h-4.31zM48.485 18.36h4.31v4.32h-4.31zM56.027 18.36h4.31v4.32h-4.31zM63.569 18.36h4.31v4.32h-4.31zM71.111 18.36h4.31v4.32h-4.31zM78.653 18.36h4.31v4.32h-4.31zM48.485 25.92h4.31v4.32h-4.31zM56.027 25.92h4.31v4.32h-4.31zM63.569 25.92h4.31v4.32h-4.31zM71.111 25.92h4.31v4.32h-4.31zM78.653 25.92h4.31v4.32h-4.31zM48.485 33.48h4.31v4.32h-4.31zM56.027 33.48h4.31v4.32h-4.31zM63.569 33.48h4.31v4.32h-4.31zM71.111 33.48h4.31v4.32h-4.31zM78.653 33.48h4.31v4.32h-4.31zM48.485 41.04h4.31v4.32h-4.31zM56.027 41.04h4.31v4.32h-4.31zM63.569 41.04h4.31v4.32h-4.31zM71.111 41.04h4.31v4.32h-4.31zM78.653 41.04h4.31v4.32h-4.31zM48.485 48.6h4.31v4.32h-4.31zM56.027 48.6h4.31v4.32h-4.31zM63.569 48.6h4.31v4.32h-4.31zM71.111 48.6h4.31v4.32h-4.31zM78.653 48.6h4.31v4.32h-4.31zM10.774 56.16h4.31v4.32h-4.31zM18.316 56.16h4.31v4.32h-4.31zM25.859 56.16h4.31v4.32h-4.31zM33.401 56.16h4.31v4.32h-4.31zM40.943 56.16h4.31v4.32h-4.31zM10.774 63.72h4.31v4.32h-4.31zM18.316 63.72h4.31v4.32h-4.31zM25.859 63.72h4.31v4.32h-4.31zM33.401 63.72h4.31v4.32h-4.31zM40.943 63.72h4.31v4.32h-4.31zM10.774 71.28h4.31v4.32h-4.31zM18.316 71.28h4.31v4.32h-4.31zM25.859 71.28h4.31v4.32h-4.31zM33.401 71.28h4.31v4.32h-4.31zM40.943 71.28h4.31v4.32h-4.31zM10.774 78.84h4.31v4.32h-4.31zM18.316 78.84h4.31v4.32h-4.31zM25.859 78.84h4.31v4.32h-4.31zM33.401 78.84h4.31v4.32h-4.31zM40.943 78.84h4.31v4.32h-4.31zM10.774 86.4h4.31v4.32h-4.31zM18.316 86.4h4.31v4.32h-4.31zM25.859 86.4h4.31v4.32h-4.31zM33.401 86.4h4.31v4.32h-4.31zM40.943 86.4h4.31v4.32h-4.31zM10.774 93.96h4.31v4.32h-4.31zM18.316 93.96h4.31v4.32h-4.31zM25.859 93.96h4.31v4.32h-4.31zM33.401 93.96h4.31v4.32h-4.31zM40.943 93.96h4.31v4.32h-4.31zM48.485 56.16h4.31v4.32h-4.31zM56.027 56.16h4.31v4.32h-4.31zM63.569 56.16h4.31v4.32h-4.31zM71.111 56.16h4.31v4.32h-4.31zM78.653 56.16h4.31v4.32h-4.31zM48.485 63.72h4.31v4.32h-4.31zM56.027 63.72h4.31v4.32h-4.31zM63.569 63.72h4.31v4.32h-4.31zM71.111 63.72h4.31v4.32h-4.31zM78.653 63.72h4.31v4.32h-4.31zM48.485 71.28h4.31v4.32h-4.31zM56.027 71.28h4.31v4.32h-4.31zM63.569 71.28h4.31v4.32h-4.31zM71.111 71.28h4.31v4.32h-4.31zM78.653 71.28h4.31v4.32h-4.31zM48.485 78.84h4.31v4.32h-4.31zM56.027 78.84h4.31v4.32h-4.31zM63.569 78.84h4.31v4.32h-4.31zM71.111 78.84h4.31v4.32h-4.31zM78.653 78.84h4.31v4.32h-4.31zM48.485 86.4h4.31v4.32h-4.31zM56.027 86.4h4.31v4.32h-4.31zM63.569 86.4h4.31v4.32h-4.31zM71.111 86.4h4.31v4.32h-4.31zM78.653 86.4h4.31v4.32h-4.31zM48.485 93.96h4.31v4.32h-4.31zM56.027 93.96h4.31v4.32h-4.31zM63.569 93.96h4.31v4.32h-4.31zM71.111 93.96h4.31v4.32h-4.31zM78.653 93.96h4.31v4.32h-4.31zM86.195 10.8h4.31v4.32h-4.31zM93.737 10.8h4.31v4.32h-4.31zM101.279 10.8h4.31v4.32h-4.31zM108.822 10.8h4.31v4.32h-4.31zM116.364 10.8h4.31v4.32h-4.31zM86.195 18.36h4.31v4.32h-4.31zM93.737 18.36h4.31v4.32h-4.31zM101.279 18.36h4.31v4.32h-4.31zM108.822 18.36h4.31v4.32h-4.31zM116.364 18.36h4.31v4.32h-4.31zM86.195 25.92h4.31v4.32h-4.31zM93.737 25.92h4.31v4.32h-4.31zM101.279 25.92h4.31v4.32h-4.31zM108.822 25.92h4.31v4.32h-4.31zM116.364 25.92h4.31v4.32h-4.31zM86.195 33.48h4.31v4.32h-4.31zM93.737 33.48h4.31v4.32h-4.31zM101.279 33.48h4.31v4.32h-4.31zM108.822 33.48h4.31v4.32h-4.31zM116.364 33.48h4.31v4.32h-4.31zM86.195 41.04h4.31v4.32h-4.31zM93.737 41.04h4.31v4.32h-4.31zM101.279 41.04h4.31v4.32h-4.31zM108.822 41.04h4.31v4.32h-4.31zM116.364 41.04h4.31v4.32h-4.31zM86.195 48.6h4.31v4.32h-4.31zM93.737 48.6h4.31v4.32h-4.31zM101.279 48.6h4.31v4.32h-4.31zM108.822 48.6h4.31v4.32h-4.31zM116.364 48.6h4.31v4.32h-4.31zM123.906 10.8h4.31v4.32h-4.31zM131.448 10.8h4.31v4.32h-4.31zM138.99 10.8h4.31v4.32h-4.31zM146.532 10.8h4.31v4.32h-4.31zM154.074 10.8h4.31v4.32h-4.31zM123.906 18.36h4.31v4.32h-4.31zM131.448 18.36h4.31v4.32h-4.31zM138.99 18.36h4.31v4.32h-4.31zM146.532 18.36h4.31v4.32h-4.31zM154.074 18.36h4.31v4.32h-4.31zM123.906 25.92h4.31v4.32h-4.31zM131.448 25.92h4.31v4.32h-4.31zM138.99 25.92h4.31v4.32h-4.31zM146.532 25.92h4.31v4.32h-4.31zM154.074 25.92h4.31v4.32h-4.31zM123.906 33.48h4.31v4.32h-4.31zM131.448 33.48h4.31v4.32h-4.31zM138.99 33.48h4.31v4.32h-4.31zM146.532 33.48h4.31v4.32h-4.31zM154.074 33.48h4.31v4.32h-4.31zM123.906 41.04h4.31v4.32h-4.31zM131.448 41.04h4.31v4.32h-4.31zM138.99 41.04h4.31v4.32h-4.31zM146.532 41.04h4.31v4.32h-4.31zM154.074 41.04h4.31v4.32h-4.31zM123.906 48.6h4.31v4.32h-4.31zM131.448 48.6h4.31v4.32h-4.31zM138.99 48.6h4.31v4.32h-4.31zM146.532 48.6h4.31v4.32h-4.31zM154.074 48.6h4.31v4.32h-4.31zM86.195 56.16h4.31v4.32h-4.31zM93.737 56.16h4.31v4.32h-4.31zM101.279 56.16h4.31v4.32h-4.31zM108.822 56.16h4.31v4.32h-4.31zM116.364 56.16h4.31v4.32h-4.31zM86.195 63.72h4.31v4.32h-4.31zM93.737 63.72h4.31v4.32h-4.31zM101.279 63.72h4.31v4.32h-4.31zM108.822 63.72h4.31v4.32h-4.31zM116.364 63.72h4.31v4.32h-4.31zM86.195 71.28h4.31v4.32h-4.31zM93.737 71.28h4.31v4.32h-4.31zM101.279 71.28h4.31v4.32h-4.31zM108.822 71.28h4.31v4.32h-4.31zM116.364 71.28h4.31v4.32h-4.31zM86.195 78.84h4.31v4.32h-4.31zM93.737 78.84h4.31v4.32h-4.31zM101.279 78.84h4.31v4.32h-4.31zM108.822 78.84h4.31v4.32h-4.31zM116.364 78.84h4.31v4.32h-4.31zM86.195 86.4h4.31v4.32h-4.31zM93.737 86.4h4.31v4.32h-4.31zM101.279 86.4h4.31v4.32h-4.31zM108.822 86.4h4.31v4.32h-4.31zM116.364 86.4h4.31v4.32h-4.31zM86.195 93.96h4.31v4.32h-4.31zM93.737 93.96h4.31v4.32h-4.31zM101.279 93.96h4.31v4.32h-4.31zM108.822 93.96h4.31v4.32h-4.31zM116.364 93.96h4.31v4.32h-4.31zM123.906 56.16h4.31v4.32h-4.31zM131.448 56.16h4.31v4.32h-4.31zM138.99 56.16h4.31v4.32h-4.31zM146.532 56.16h4.31v4.32h-4.31zM154.074 56.16h4.31v4.32h-4.31zM123.906 63.72h4.31v4.32h-4.31zM131.448 63.72h4.31v4.32h-4.31zM138.99 63.72h4.31v4.32h-4.31zM146.532 63.72h4.31v4.32h-4.31zM154.074 63.72h4.31v4.32h-4.31zM123.906 71.28h4.31v4.32h-4.31zM131.448 71.28h4.31v4.32h-4.31zM138.99 71.28h4.31v4.32h-4.31zM146.532 71.28h4.31v4.32h-4.31zM154.074 71.28h4.31v4.32h-4.31zM123.906 78.84h4.31v4.32h-4.31zM131.448 78.84h4.31v4.32h-4.31zM138.99 78.84h4.31v4.32h-4.31zM146.532 78.84h4.31v4.32h-4.31zM154.074 78.84h4.31v4.32h-4.31zM123.906 86.4h4.31v4.32h-4.31zM131.448 86.4h4.31v4.32h-4.31zM138.99 86.4h4.31v4.32h-4.31zM146.532 86.4h4.31v4.32h-4.31zM154.074 86.4h4.31v4.32h-4.31zM123.906 93.96h4.31v4.32h-4.31zM131.448 93.96h4.31v4.32h-4.31zM138.99 93.96h4.31v4.32h-4.31zM146.532 93.96h4.31v4.32h-4.31zM154.074 93.96h4.31v4.32h-4.31zM10.774 101.52h4.31v4.32h-4.31zM18.316 101.52h4.31v4.32h-4.31zM25.859 101.52h4.31v4.32h-4.31zM33.401 101.52h4.31v4.32h-4.31zM40.943 101.52h4.31v4.32h-4.31zM10.774 109.08h4.31v4.32h-4.31zM18.316 109.08h4.31v4.32h-4.31zM25.859 109.08h4.31v4.32h-4.31zM33.401 109.08h4.31v4.32h-4.31zM40.943 109.08h4.31v4.32h-4.31zM10.774 116.64h4.31v4.32h-4.31zM18.316 116.64h4.31v4.32h-4.31zM25.859 116.64h4.31v4.32h-4.31zM33.401 116.64h4.31v4.32h-4.31zM40.943 116.64h4.31v4.32h-4.31zM10.774 124.2h4.31v4.32h-4.31zM18.316 124.2h4.31v4.32h-4.31zM25.859 124.2h4.31v4.32h-4.31zM33.401 124.2h4.31v4.32h-4.31zM40.943 124.2h4.31v4.32h-4.31zM10.774 131.76h4.31v4.32h-4.31zM18.316 131.76h4.31v4.32h-4.31zM25.859 131.76h4.31v4.32h-4.31zM33.401 131.76h4.31v4.32h-4.31zM40.943 131.76h4.31v4.32h-4.31zM10.774 139.32h4.31v4.32h-4.31zM18.316 139.32h4.31v4.32h-4.31zM25.859 139.32h4.31v4.32h-4.31zM33.401 139.32h4.31v4.32h-4.31zM40.943 139.32h4.31v4.32h-4.31zM48.485 101.52h4.31v4.32h-4.31zM56.027 101.52h4.31v4.32h-4.31zM63.569 101.52h4.31v4.32h-4.31zM71.111 101.52h4.31v4.32h-4.31zM78.653 101.52h4.31v4.32h-4.31zM48.485 109.08h4.31v4.32h-4.31zM56.027 109.08h4.31v4.32h-4.31zM63.569 109.08h4.31v4.32h-4.31zM71.111 109.08h4.31v4.32h-4.31zM78.653 109.08h4.31v4.32h-4.31zM48.485 116.64h4.31v4.32h-4.31zM56.027 116.64h4.31v4.32h-4.31zM63.569 116.64h4.31v4.32h-4.31zM71.111 116.64h4.31v4.32h-4.31zM78.653 116.64h4.31v4.32h-4.31zM48.485 124.2h4.31v4.32h-4.31zM56.027 124.2h4.31v4.32h-4.31zM63.569 124.2h4.31v4.32h-4.31zM71.111 124.2h4.31v4.32h-4.31zM78.653 124.2h4.31v4.32h-4.31zM48.485 131.76h4.31v4.32h-4.31zM56.027 131.76h4.31v4.32h-4.31zM63.569 131.76h4.31v4.32h-4.31zM71.111 131.76h4.31v4.32h-4.31zM78.653 131.76h4.31v4.32h-4.31zM48.485 139.32h4.31v4.32h-4.31zM56.027 139.32h4.31v4.32h-4.31zM63.569 139.32h4.31v4.32h-4.31zM71.111 139.32h4.31v4.32h-4.31zM78.653 139.32h4.31v4.32h-4.31zM10.774 146.88h4.31v4.32h-4.31zM18.316 146.88h4.31v4.32h-4.31zM25.859 146.88h4.31v4.32h-4.31zM33.401 146.88h4.31v4.32h-4.31zM40.943 146.88h4.31v4.32h-4.31zM10.774 154.44h4.31v4.32h-4.31zM18.316 154.44h4.31v4.32h-4.31zM25.859 154.44h4.31v4.32h-4.31zM33.401 154.44h4.31v4.32h-4.31zM40.943 154.44h4.31v4.32h-4.31zM10.774 162h4.31v4.32h-4.31zM18.316 162h4.31v4.32h-4.31zM25.859 162h4.31v4.32h-4.31zM33.401 162h4.31v4.32h-4.31zM40.943 162h4.31v4.32h-4.31zM10.774 169.56h4.31v4.32h-4.31zM18.316 169.56h4.31v4.32h-4.31zM25.859 169.56h4.31v4.32h-4.31zM33.401 169.56h4.31v4.32h-4.31zM40.943 169.56h4.31v4.32h-4.31zM10.774 177.12h4.31v4.32h-4.31zM18.316 177.12h4.31v4.32h-4.31zM25.859 177.12h4.31v4.32h-4.31zM33.401 177.12h4.31v4.32h-4.31zM40.943 177.12h4.31v4.32h-4.31zM10.774 184.68h4.31V189h-4.31zM18.316 184.68h4.31V189h-4.31zM25.859 184.68h4.31V189h-4.31zM33.401 184.68h4.31V189h-4.31zM40.943 184.68h4.31V189h-4.31zM48.485 146.88h4.31v4.32h-4.31zM56.027 146.88h4.31v4.32h-4.31zM63.569 146.88h4.31v4.32h-4.31zM71.111 146.88h4.31v4.32h-4.31zM78.653 146.88h4.31v4.32h-4.31zM48.485 154.44h4.31v4.32h-4.31zM56.027 154.44h4.31v4.32h-4.31zM63.569 154.44h4.31v4.32h-4.31zM71.111 154.44h4.31v4.32h-4.31zM78.653 154.44h4.31v4.32h-4.31zM48.485 162h4.31v4.32h-4.31zM56.027 162h4.31v4.32h-4.31zM63.569 162h4.31v4.32h-4.31zM71.111 162h4.31v4.32h-4.31zM78.653 162h4.31v4.32h-4.31zM48.485 169.56h4.31v4.32h-4.31zM56.027 169.56h4.31v4.32h-4.31zM63.569 169.56h4.31v4.32h-4.31zM71.111 169.56h4.31v4.32h-4.31zM78.653 169.56h4.31v4.32h-4.31zM48.485 177.12h4.31v4.32h-4.31zM56.027 177.12h4.31v4.32h-4.31zM63.569 177.12h4.31v4.32h-4.31zM71.111 177.12h4.31v4.32h-4.31zM78.653 177.12h4.31v4.32h-4.31zM48.485 184.68h4.31V189h-4.31zM56.027 184.68h4.31V189h-4.31zM63.569 184.68h4.31V189h-4.31zM71.111 184.68h4.31V189h-4.31zM78.653 184.68h4.31V189h-4.31zM86.195 101.52h4.31v4.32h-4.31zM93.737 101.52h4.31v4.32h-4.31zM101.279 101.52h4.31v4.32h-4.31zM108.822 101.52h4.31v4.32h-4.31zM116.364 101.52h4.31v4.32h-4.31zM86.195 109.08h4.31v4.32h-4.31zM93.737 109.08h4.31v4.32h-4.31zM101.279 109.08h4.31v4.32h-4.31zM108.822 109.08h4.31v4.32h-4.31zM116.364 109.08h4.31v4.32h-4.31zM86.195 116.64h4.31v4.32h-4.31zM93.737 116.64h4.31v4.32h-4.31zM101.279 116.64h4.31v4.32h-4.31zM108.822 116.64h4.31v4.32h-4.31zM116.364 116.64h4.31v4.32h-4.31zM86.195 124.2h4.31v4.32h-4.31zM93.737 124.2h4.31v4.32h-4.31zM101.279 124.2h4.31v4.32h-4.31zM108.822 124.2h4.31v4.32h-4.31zM116.364 124.2h4.31v4.32h-4.31zM86.195 131.76h4.31v4.32h-4.31zM93.737 131.76h4.31v4.32h-4.31zM101.279 131.76h4.31v4.32h-4.31zM108.822 131.76h4.31v4.32h-4.31zM116.364 131.76h4.31v4.32h-4.31zM86.195 139.32h4.31v4.32h-4.31zM93.737 139.32h4.31v4.32h-4.31zM101.279 139.32h4.31v4.32h-4.31zM108.822 139.32h4.31v4.32h-4.31zM116.364 139.32h4.31v4.32h-4.31zM123.906 101.52h4.31v4.32h-4.31zM131.448 101.52h4.31v4.32h-4.31zM138.99 101.52h4.31v4.32h-4.31zM146.532 101.52h4.31v4.32h-4.31zM154.074 101.52h4.31v4.32h-4.31zM123.906 109.08h4.31v4.32h-4.31zM131.448 109.08h4.31v4.32h-4.31zM138.99 109.08h4.31v4.32h-4.31zM146.532 109.08h4.31v4.32h-4.31zM154.074 109.08h4.31v4.32h-4.31zM123.906 116.64h4.31v4.32h-4.31zM131.448 116.64h4.31v4.32h-4.31zM138.99 116.64h4.31v4.32h-4.31zM146.532 116.64h4.31v4.32h-4.31zM154.074 116.64h4.31v4.32h-4.31zM123.906 124.2h4.31v4.32h-4.31zM131.448 124.2h4.31v4.32h-4.31zM138.99 124.2h4.31v4.32h-4.31zM146.532 124.2h4.31v4.32h-4.31zM154.074 124.2h4.31v4.32h-4.31zM123.906 131.76h4.31v4.32h-4.31zM131.448 131.76h4.31v4.32h-4.31zM138.99 131.76h4.31v4.32h-4.31zM146.532 131.76h4.31v4.32h-4.31zM154.074 131.76h4.31v4.32h-4.31zM123.906 139.32h4.31v4.32h-4.31zM131.448 139.32h4.31v4.32h-4.31zM138.99 139.32h4.31v4.32h-4.31zM146.532 139.32h4.31v4.32h-4.31zM154.074 139.32h4.31v4.32h-4.31zM86.195 146.88h4.31v4.32h-4.31zM93.737 146.88h4.31v4.32h-4.31zM101.279 146.88h4.31v4.32h-4.31zM108.822 146.88h4.31v4.32h-4.31zM116.364 146.88h4.31v4.32h-4.31zM86.195 154.44h4.31v4.32h-4.31zM93.737 154.44h4.31v4.32h-4.31zM101.279 154.44h4.31v4.32h-4.31zM108.822 154.44h4.31v4.32h-4.31zM116.364 154.44h4.31v4.32h-4.31zM86.195 162h4.31v4.32h-4.31zM93.737 162h4.31v4.32h-4.31zM101.279 162h4.31v4.32h-4.31zM108.822 162h4.31v4.32h-4.31zM116.364 162h4.31v4.32h-4.31zM86.195 169.56h4.31v4.32h-4.31zM93.737 169.56h4.31v4.32h-4.31zM101.279 169.56h4.31v4.32h-4.31zM108.822 169.56h4.31v4.32h-4.31zM116.364 169.56h4.31v4.32h-4.31zM86.195 177.12h4.31v4.32h-4.31zM93.737 177.12h4.31v4.32h-4.31zM101.279 177.12h4.31v4.32h-4.31zM108.822 177.12h4.31v4.32h-4.31zM116.364 177.12h4.31v4.32h-4.31zM86.195 184.68h4.31V189h-4.31zM93.737 184.68h4.31V189h-4.31zM101.279 184.68h4.31V189h-4.31zM108.822 184.68h4.31V189h-4.31zM116.364 184.68h4.31V189h-4.31zM123.906 146.88h4.31v4.32h-4.31zM131.448 146.88h4.31v4.32h-4.31zM138.99 146.88h4.31v4.32h-4.31zM146.532 146.88h4.31v4.32h-4.31zM154.074 146.88h4.31v4.32h-4.31zM123.906 154.44h4.31v4.32h-4.31zM131.448 154.44h4.31v4.32h-4.31zM138.99 154.44h4.31v4.32h-4.31zM146.532 154.44h4.31v4.32h-4.31zM154.074 154.44h4.31v4.32h-4.31zM123.906 162h4.31v4.32h-4.31zM131.448 162h4.31v4.32h-4.31zM138.99 162h4.31v4.32h-4.31zM146.532 162h4.31v4.32h-4.31zM154.074 162h4.31v4.32h-4.31zM123.906 169.56h4.31v4.32h-4.31zM131.448 169.56h4.31v4.32h-4.31zM138.99 169.56h4.31v4.32h-4.31zM146.532 169.56h4.31v4.32h-4.31zM154.074 169.56h4.31v4.32h-4.31zM123.906 177.12h4.31v4.32h-4.31zM131.448 177.12h4.31v4.32h-4.31zM138.99 177.12h4.31v4.32h-4.31zM146.532 177.12h4.31v4.32h-4.31zM154.074 177.12h4.31v4.32h-4.31zM123.906 184.68h4.31V189h-4.31zM131.448 184.68h4.31V189h-4.31zM138.99 184.68h4.31V189h-4.31zM146.532 184.68h4.31V189h-4.31zM154.074 184.68h4.31V189h-4.31zM10.774 192.24h4.31v4.32h-4.31zM18.316 192.24h4.31v4.32h-4.31zM25.859 192.24h4.31v4.32h-4.31zM33.401 192.24h4.31v4.32h-4.31zM40.943 192.24h4.31v4.32h-4.31zM10.774 199.8h4.31v4.32h-4.31zM18.316 199.8h4.31v4.32h-4.31zM25.859 199.8h4.31v4.32h-4.31zM33.401 199.8h4.31v4.32h-4.31zM40.943 199.8h4.31v4.32h-4.31zM10.774 207.36h4.31v4.32h-4.31zM18.316 207.36h4.31v4.32h-4.31zM25.859 207.36h4.31v4.32h-4.31zM33.401 207.36h4.31v4.32h-4.31zM40.943 207.36h4.31v4.32h-4.31zM10.774 214.92h4.31v4.32h-4.31zM18.316 214.92h4.31v4.32h-4.31zM25.859 214.92h4.31v4.32h-4.31zM33.401 214.92h4.31v4.32h-4.31zM40.943 214.92h4.31v4.32h-4.31zM10.774 222.48h4.31v4.32h-4.31zM18.316 222.48h4.31v4.32h-4.31zM25.859 222.48h4.31v4.32h-4.31zM33.401 222.48h4.31v4.32h-4.31zM40.943 222.48h4.31v4.32h-4.31zM10.774 230.04h4.31v4.32h-4.31zM18.316 230.04h4.31v4.32h-4.31zM25.859 230.04h4.31v4.32h-4.31zM33.401 230.04h4.31v4.32h-4.31zM40.943 230.04h4.31v4.32h-4.31zM48.485 192.24h4.31v4.32h-4.31zM56.027 192.24h4.31v4.32h-4.31zM63.569 192.24h4.31v4.32h-4.31zM71.111 192.24h4.31v4.32h-4.31zM78.653 192.24h4.31v4.32h-4.31zM48.485 199.8h4.31v4.32h-4.31zM56.027 199.8h4.31v4.32h-4.31zM63.569 199.8h4.31v4.32h-4.31zM71.111 199.8h4.31v4.32h-4.31zM78.653 199.8h4.31v4.32h-4.31zM48.485 207.36h4.31v4.32h-4.31zM56.027 207.36h4.31v4.32h-4.31zM63.569 207.36h4.31v4.32h-4.31zM71.111 207.36h4.31v4.32h-4.31zM78.653 207.36h4.31v4.32h-4.31zM48.485 214.92h4.31v4.32h-4.31zM56.027 214.92h4.31v4.32h-4.31zM63.569 214.92h4.31v4.32h-4.31zM71.111 214.92h4.31v4.32h-4.31zM78.653 214.92h4.31v4.32h-4.31zM48.485 222.48h4.31v4.32h-4.31zM56.027 222.48h4.31v4.32h-4.31zM63.569 222.48h4.31v4.32h-4.31zM71.111 222.48h4.31v4.32h-4.31zM78.653 222.48h4.31v4.32h-4.31zM48.485 230.04h4.31v4.32h-4.31zM56.027 230.04h4.31v4.32h-4.31zM63.569 230.04h4.31v4.32h-4.31zM71.111 230.04h4.31v4.32h-4.31zM78.653 230.04h4.31v4.32h-4.31zM10.774 237.6h4.31v4.32h-4.31zM18.316 237.6h4.31v4.32h-4.31zM25.859 237.6h4.31v4.32h-4.31zM33.401 237.6h4.31v4.32h-4.31zM40.943 237.6h4.31v4.32h-4.31zM10.774 245.16h4.31v4.32h-4.31zM18.316 245.16h4.31v4.32h-4.31zM25.859 245.16h4.31v4.32h-4.31zM33.401 245.16h4.31v4.32h-4.31zM40.943 245.16h4.31v4.32h-4.31zM10.774 252.72h4.31v4.32h-4.31zM18.316 252.72h4.31v4.32h-4.31zM25.859 252.72h4.31v4.32h-4.31zM33.401 252.72h4.31v4.32h-4.31zM40.943 252.72h4.31v4.32h-4.31zM10.774 260.28h4.31v4.32h-4.31zM18.316 260.28h4.31v4.32h-4.31zM25.859 260.28h4.31v4.32h-4.31zM33.401 260.28h4.31v4.32h-4.31zM40.943 260.28h4.31v4.32h-4.31zM10.774 267.84h4.31v4.32h-4.31zM18.316 267.84h4.31v4.32h-4.31zM25.859 267.84h4.31v4.32h-4.31zM33.401 267.84h4.31v4.32h-4.31zM40.943 267.84h4.31v4.32h-4.31zM10.774 275.4h4.31v4.32h-4.31zM18.316 275.4h4.31v4.32h-4.31zM25.859 275.4h4.31v4.32h-4.31zM33.401 275.4h4.31v4.32h-4.31zM40.943 275.4h4.31v4.32h-4.31zM48.485 237.6h4.31v4.32h-4.31zM56.027 237.6h4.31v4.32h-4.31zM63.569 237.6h4.31v4.32h-4.31zM71.111 237.6h4.31v4.32h-4.31zM78.653 237.6h4.31v4.32h-4.31zM48.485 245.16h4.31v4.32h-4.31zM56.027 245.16h4.31v4.32h-4.31zM63.569 245.16h4.31v4.32h-4.31zM71.111 245.16h4.31v4.32h-4.31zM78.653 245.16h4.31v4.32h-4.31zM48.485 252.72h4.31v4.32h-4.31zM56.027 252.72h4.31v4.32h-4.31zM63.569 252.72h4.31v4.32h-4.31zM71.111 252.72h4.31v4.32h-4.31zM78.653 252.72h4.31v4.32h-4.31zM48.485 260.28h4.31v4.32h-4.31zM56.027 260.28h4.31v4.32h-4.31zM63.569 260.28h4.31v4.32h-4.31zM71.111 260.28h4.31v4.32h-4.31zM78.653 260.28h4.31v4.32h-4.31zM48.485 267.84h4.31v4.32h-4.31zM56.027 267.84h4.31v4.32h-4.31zM63.569 267.84h4.31v4.32h-4.31zM71.111 267.84h4.31v4.32h-4.31zM78.653 267.84h4.31v4.32h-4.31zM48.485 275.4h4.31v4.32h-4.31zM56.027 275.4h4.31v4.32h-4.31zM63.569 275.4h4.31v4.32h-4.31zM71.111 275.4h4.31v4.32h-4.31zM78.653 275.4h4.31v4.32h-4.31zM86.195 192.24h4.31v4.32h-4.31zM93.737 192.24h4.31v4.32h-4.31zM101.279 192.24h4.31v4.32h-4.31zM108.822 192.24h4.31v4.32h-4.31zM116.364 192.24h4.31v4.32h-4.31zM86.195 199.8h4.31v4.32h-4.31zM93.737 199.8h4.31v4.32h-4.31zM101.279 199.8h4.31v4.32h-4.31zM108.822 199.8h4.31v4.32h-4.31zM116.364 199.8h4.31v4.32h-4.31zM86.195 207.36h4.31v4.32h-4.31zM93.737 207.36h4.31v4.32h-4.31zM101.279 207.36h4.31v4.32h-4.31zM108.822 207.36h4.31v4.32h-4.31zM116.364 207.36h4.31v4.32h-4.31zM86.195 214.92h4.31v4.32h-4.31zM93.737 214.92h4.31v4.32h-4.31zM101.279 214.92h4.31v4.32h-4.31zM108.822 214.92h4.31v4.32h-4.31zM116.364 214.92h4.31v4.32h-4.31zM86.195 222.48h4.31v4.32h-4.31zM93.737 222.48h4.31v4.32h-4.31zM101.279 222.48h4.31v4.32h-4.31zM108.822 222.48h4.31v4.32h-4.31zM116.364 222.48h4.31v4.32h-4.31zM86.195 230.04h4.31v4.32h-4.31zM93.737 230.04h4.31v4.32h-4.31zM101.279 230.04h4.31v4.32h-4.31zM108.822 230.04h4.31v4.32h-4.31zM116.364 230.04h4.31v4.32h-4.31zM123.906 192.24h4.31v4.32h-4.31zM131.448 192.24h4.31v4.32h-4.31zM138.99 192.24h4.31v4.32h-4.31zM146.532 192.24h4.31v4.32h-4.31zM154.074 192.24h4.31v4.32h-4.31zM123.906 199.8h4.31v4.32h-4.31zM131.448 199.8h4.31v4.32h-4.31zM138.99 199.8h4.31v4.32h-4.31zM146.532 199.8h4.31v4.32h-4.31zM154.074 199.8h4.31v4.32h-4.31zM123.906 207.36h4.31v4.32h-4.31zM131.448 207.36h4.31v4.32h-4.31zM138.99 207.36h4.31v4.32h-4.31zM146.532 207.36h4.31v4.32h-4.31zM154.074 207.36h4.31v4.32h-4.31zM123.906 214.92h4.31v4.32h-4.31zM131.448 214.92h4.31v4.32h-4.31zM138.99 214.92h4.31v4.32h-4.31zM146.532 214.92h4.31v4.32h-4.31zM154.074 214.92h4.31v4.32h-4.31zM123.906 222.48h4.31v4.32h-4.31zM131.448 222.48h4.31v4.32h-4.31zM138.99 222.48h4.31v4.32h-4.31zM146.532 222.48h4.31v4.32h-4.31zM154.074 222.48h4.31v4.32h-4.31zM123.906 230.04h4.31v4.32h-4.31zM131.448 230.04h4.31v4.32h-4.31zM138.99 230.04h4.31v4.32h-4.31zM146.532 230.04h4.31v4.32h-4.31zM154.074 230.04h4.31v4.32h-4.31zM86.195 237.6h4.31v4.32h-4.31zM93.737 237.6h4.31v4.32h-4.31zM101.279 237.6h4.31v4.32h-4.31zM108.822 237.6h4.31v4.32h-4.31zM116.364 237.6h4.31v4.32h-4.31zM86.195 245.16h4.31v4.32h-4.31zM93.737 245.16h4.31v4.32h-4.31zM101.279 245.16h4.31v4.32h-4.31zM108.822 245.16h4.31v4.32h-4.31zM116.364 245.16h4.31v4.32h-4.31zM86.195 252.72h4.31v4.32h-4.31zM93.737 252.72h4.31v4.32h-4.31zM101.279 252.72h4.31v4.32h-4.31zM108.822 252.72h4.31v4.32h-4.31zM116.364 252.72h4.31v4.32h-4.31zM86.195 260.28h4.31v4.32h-4.31zM93.737 260.28h4.31v4.32h-4.31zM101.279 260.28h4.31v4.32h-4.31zM108.822 260.28h4.31v4.32h-4.31zM116.364 260.28h4.31v4.32h-4.31zM86.195 267.84h4.31v4.32h-4.31zM93.737 267.84h4.31v4.32h-4.31zM101.279 267.84h4.31v4.32h-4.31zM108.822 267.84h4.31v4.32h-4.31zM116.364 267.84h4.31v4.32h-4.31zM86.195 275.4h4.31v4.32h-4.31zM93.737 275.4h4.31v4.32h-4.31zM101.279 275.4h4.31v4.32h-4.31zM108.822 275.4h4.31v4.32h-4.31zM116.364 275.4h4.31v4.32h-4.31zM123.906 237.6h4.31v4.32h-4.31zM131.448 237.6h4.31v4.32h-4.31zM138.99 237.6h4.31v4.32h-4.31zM146.532 237.6h4.31v4.32h-4.31zM154.074 237.6h4.31v4.32h-4.31zM123.906 245.16h4.31v4.32h-4.31zM131.448 245.16h4.31v4.32h-4.31zM138.99 245.16h4.31v4.32h-4.31zM146.532 245.16h4.31v4.32h-4.31zM154.074 245.16h4.31v4.32h-4.31zM123.906 252.72h4.31v4.32h-4.31zM131.448 252.72h4.31v4.32h-4.31zM138.99 252.72h4.31v4.32h-4.31zM146.532 252.72h4.31v4.32h-4.31zM154.074 252.72h4.31v4.32h-4.31zM123.906 260.28h4.31v4.32h-4.31zM131.448 260.28h4.31v4.32h-4.31zM138.99 260.28h4.31v4.32h-4.31zM146.532 260.28h4.31v4.32h-4.31zM154.074 260.28h4.31v4.32h-4.31zM123.906 267.84h4.31v4.32h-4.31zM131.448 267.84h4.31v4.32h-4.31zM138.99 267.84h4.31v4.32h-4.31zM146.532 267.84h4.31v4.32h-4.31zM154.074 267.84h4.31v4.32h-4.31zM123.906 275.4h4.31v4.32h-4.31zM131.448 275.4h4.31v4.32h-4.31zM138.99 275.4h4.31v4.32h-4.31zM146.532 275.4h4.31v4.32h-4.31zM154.074 275.4h4.31v4.32h-4.31zM161.616 10.8h4.31v4.32h-4.31zM169.158 10.8h4.31v4.32h-4.31zM176.7 10.8h4.31v4.32h-4.31zM184.242 10.8h4.31v4.32h-4.31zM191.785 10.8h4.31v4.32h-4.31zM161.616 18.36h4.31v4.32h-4.31zM169.158 18.36h4.31v4.32h-4.31zM176.7 18.36h4.31v4.32h-4.31zM184.242 18.36h4.31v4.32h-4.31zM191.785 18.36h4.31v4.32h-4.31zM161.616 25.92h4.31v4.32h-4.31zM169.158 25.92h4.31v4.32h-4.31zM176.7 25.92h4.31v4.32h-4.31zM184.242 25.92h4.31v4.32h-4.31zM191.785 25.92h4.31v4.32h-4.31zM161.616 33.48h4.31v4.32h-4.31zM169.158 33.48h4.31v4.32h-4.31zM176.7 33.48h4.31v4.32h-4.31zM184.242 33.48h4.31v4.32h-4.31zM191.785 33.48h4.31v4.32h-4.31zM161.616 41.04h4.31v4.32h-4.31zM169.158 41.04h4.31v4.32h-4.31zM176.7 41.04h4.31v4.32h-4.31zM184.242 41.04h4.31v4.32h-4.31zM191.785 41.04h4.31v4.32h-4.31zM161.616 48.6h4.31v4.32h-4.31zM169.158 48.6h4.31v4.32h-4.31zM176.7 48.6h4.31v4.32h-4.31zM184.242 48.6h4.31v4.32h-4.31zM191.785 48.6h4.31v4.32h-4.31zM199.327 10.8h4.31v4.32h-4.31zM206.869 10.8h4.31v4.32h-4.31zM214.411 10.8h4.31v4.32h-4.31zM221.953 10.8h4.31v4.32h-4.31zM229.495 10.8h4.31v4.32h-4.31zM199.327 18.36h4.31v4.32h-4.31zM206.869 18.36h4.31v4.32h-4.31zM214.411 18.36h4.31v4.32h-4.31zM221.953 18.36h4.31v4.32h-4.31zM229.495 18.36h4.31v4.32h-4.31zM199.327 25.92h4.31v4.32h-4.31zM206.869 25.92h4.31v4.32h-4.31zM214.411 25.92h4.31v4.32h-4.31zM221.953 25.92h4.31v4.32h-4.31zM229.495 25.92h4.31v4.32h-4.31zM199.327 33.48h4.31v4.32h-4.31zM206.869 33.48h4.31v4.32h-4.31zM214.411 33.48h4.31v4.32h-4.31zM221.953 33.48h4.31v4.32h-4.31zM229.495 33.48h4.31v4.32h-4.31zM199.327 41.04h4.31v4.32h-4.31zM206.869 41.04h4.31v4.32h-4.31zM214.411 41.04h4.31v4.32h-4.31zM221.953 41.04h4.31v4.32h-4.31zM229.495 41.04h4.31v4.32h-4.31zM199.327 48.6h4.31v4.32h-4.31zM206.869 48.6h4.31v4.32h-4.31zM214.411 48.6h4.31v4.32h-4.31zM221.953 48.6h4.31v4.32h-4.31zM229.495 48.6h4.31v4.32h-4.31zM161.616 56.16h4.31v4.32h-4.31zM169.158 56.16h4.31v4.32h-4.31zM176.7 56.16h4.31v4.32h-4.31zM184.242 56.16h4.31v4.32h-4.31zM191.785 56.16h4.31v4.32h-4.31zM161.616 63.72h4.31v4.32h-4.31zM169.158 63.72h4.31v4.32h-4.31zM176.7 63.72h4.31v4.32h-4.31zM184.242 63.72h4.31v4.32h-4.31zM191.785 63.72h4.31v4.32h-4.31zM161.616 71.28h4.31v4.32h-4.31zM169.158 71.28h4.31v4.32h-4.31zM176.7 71.28h4.31v4.32h-4.31zM184.242 71.28h4.31v4.32h-4.31zM191.785 71.28h4.31v4.32h-4.31zM161.616 78.84h4.31v4.32h-4.31zM169.158 78.84h4.31v4.32h-4.31zM176.7 78.84h4.31v4.32h-4.31zM184.242 78.84h4.31v4.32h-4.31zM191.785 78.84h4.31v4.32h-4.31zM161.616 86.4h4.31v4.32h-4.31zM169.158 86.4h4.31v4.32h-4.31zM176.7 86.4h4.31v4.32h-4.31zM184.242 86.4h4.31v4.32h-4.31zM191.785 86.4h4.31v4.32h-4.31zM161.616 93.96h4.31v4.32h-4.31zM169.158 93.96h4.31v4.32h-4.31zM176.7 93.96h4.31v4.32h-4.31zM184.242 93.96h4.31v4.32h-4.31zM191.785 93.96h4.31v4.32h-4.31zM199.327 56.16h4.31v4.32h-4.31zM206.869 56.16h4.31v4.32h-4.31zM214.411 56.16h4.31v4.32h-4.31zM221.953 56.16h4.31v4.32h-4.31zM229.495 56.16h4.31v4.32h-4.31zM199.327 63.72h4.31v4.32h-4.31zM206.869 63.72h4.31v4.32h-4.31zM214.411 63.72h4.31v4.32h-4.31zM221.953 63.72h4.31v4.32h-4.31zM229.495 63.72h4.31v4.32h-4.31zM199.327 71.28h4.31v4.32h-4.31zM206.869 71.28h4.31v4.32h-4.31zM214.411 71.28h4.31v4.32h-4.31zM221.953 71.28h4.31v4.32h-4.31zM229.495 71.28h4.31v4.32h-4.31zM199.327 78.84h4.31v4.32h-4.31zM206.869 78.84h4.31v4.32h-4.31zM214.411 78.84h4.31v4.32h-4.31zM221.953 78.84h4.31v4.32h-4.31zM229.495 78.84h4.31v4.32h-4.31zM199.327 86.4h4.31v4.32h-4.31zM206.869 86.4h4.31v4.32h-4.31zM214.411 86.4h4.31v4.32h-4.31zM221.953 86.4h4.31v4.32h-4.31zM229.495 86.4h4.31v4.32h-4.31zM199.327 93.96h4.31v4.32h-4.31zM206.869 93.96h4.31v4.32h-4.31zM214.411 93.96h4.31v4.32h-4.31zM221.953 93.96h4.31v4.32h-4.31zM229.495 93.96h4.31v4.32h-4.31zM237.037 10.8h4.31v4.32h-4.31zM244.579 10.8h4.31v4.32h-4.31zM252.121 10.8h4.31v4.32h-4.31zM259.663 10.8h4.31v4.32h-4.31zM267.205 10.8h4.31v4.32h-4.31zM237.037 18.36h4.31v4.32h-4.31zM244.579 18.36h4.31v4.32h-4.31zM252.121 18.36h4.31v4.32h-4.31zM259.663 18.36h4.31v4.32h-4.31zM267.205 18.36h4.31v4.32h-4.31zM237.037 25.92h4.31v4.32h-4.31zM244.579 25.92h4.31v4.32h-4.31zM252.121 25.92h4.31v4.32h-4.31zM259.663 25.92h4.31v4.32h-4.31zM267.205 25.92h4.31v4.32h-4.31zM237.037 33.48h4.31v4.32h-4.31zM244.579 33.48h4.31v4.32h-4.31zM252.121 33.48h4.31v4.32h-4.31zM259.663 33.48h4.31v4.32h-4.31zM267.205 33.48h4.31v4.32h-4.31zM237.037 41.04h4.31v4.32h-4.31zM244.579 41.04h4.31v4.32h-4.31zM252.121 41.04h4.31v4.32h-4.31zM259.663 41.04h4.31v4.32h-4.31zM267.205 41.04h4.31v4.32h-4.31zM237.037 48.6h4.31v4.32h-4.31zM244.579 48.6h4.31v4.32h-4.31zM252.121 48.6h4.31v4.32h-4.31zM259.663 48.6h4.31v4.32h-4.31zM267.205 48.6h4.31v4.32h-4.31zM274.747 10.8h4.31v4.32h-4.31zM282.29 10.8h4.31v4.32h-4.31zM289.832 10.8h4.31v4.32h-4.31zM297.374 10.8h4.31v4.32h-4.31zM304.916 10.8h4.31v4.32h-4.31zM274.747 18.36h4.31v4.32h-4.31zM282.29 18.36h4.31v4.32h-4.31zM289.832 18.36h4.31v4.32h-4.31zM297.374 18.36h4.31v4.32h-4.31zM304.916 18.36h4.31v4.32h-4.31zM274.747 25.92h4.31v4.32h-4.31zM282.29 25.92h4.31v4.32h-4.31zM289.832 25.92h4.31v4.32h-4.31zM297.374 25.92h4.31v4.32h-4.31zM304.916 25.92h4.31v4.32h-4.31zM274.747 33.48h4.31v4.32h-4.31zM282.29 33.48h4.31v4.32h-4.31zM289.832 33.48h4.31v4.32h-4.31zM297.374 33.48h4.31v4.32h-4.31zM304.916 33.48h4.31v4.32h-4.31zM274.747 41.04h4.31v4.32h-4.31zM282.29 41.04h4.31v4.32h-4.31zM289.832 41.04h4.31v4.32h-4.31zM297.374 41.04h4.31v4.32h-4.31zM304.916 41.04h4.31v4.32h-4.31zM274.747 48.6h4.31v4.32h-4.31zM282.29 48.6h4.31v4.32h-4.31zM289.832 48.6h4.31v4.32h-4.31zM297.374 48.6h4.31v4.32h-4.31zM304.916 48.6h4.31v4.32h-4.31zM237.037 56.16h4.31v4.32h-4.31zM244.579 56.16h4.31v4.32h-4.31zM252.121 56.16h4.31v4.32h-4.31zM259.663 56.16h4.31v4.32h-4.31zM267.205 56.16h4.31v4.32h-4.31zM237.037 63.72h4.31v4.32h-4.31zM244.579 63.72h4.31v4.32h-4.31zM252.121 63.72h4.31v4.32h-4.31zM259.663 63.72h4.31v4.32h-4.31zM267.205 63.72h4.31v4.32h-4.31zM237.037 71.28h4.31v4.32h-4.31zM244.579 71.28h4.31v4.32h-4.31zM252.121 71.28h4.31v4.32h-4.31zM259.663 71.28h4.31v4.32h-4.31zM267.205 71.28h4.31v4.32h-4.31zM237.037 78.84h4.31v4.32h-4.31zM244.579 78.84h4.31v4.32h-4.31zM252.121 78.84h4.31v4.32h-4.31zM259.663 78.84h4.31v4.32h-4.31zM267.205 78.84h4.31v4.32h-4.31zM237.037 86.4h4.31v4.32h-4.31zM244.579 86.4h4.31v4.32h-4.31zM252.121 86.4h4.31v4.32h-4.31zM259.663 86.4h4.31v4.32h-4.31zM267.205 86.4h4.31v4.32h-4.31zM237.037 93.96h4.31v4.32h-4.31zM244.579 93.96h4.31v4.32h-4.31zM252.121 93.96h4.31v4.32h-4.31zM259.663 93.96h4.31v4.32h-4.31zM267.205 93.96h4.31v4.32h-4.31zM274.747 56.16h4.31v4.32h-4.31zM282.29 56.16h4.31v4.32h-4.31zM289.832 56.16h4.31v4.32h-4.31zM297.374 56.16h4.31v4.32h-4.31zM304.916 56.16h4.31v4.32h-4.31zM274.747 63.72h4.31v4.32h-4.31zM282.29 63.72h4.31v4.32h-4.31zM289.832 63.72h4.31v4.32h-4.31zM297.374 63.72h4.31v4.32h-4.31zM304.916 63.72h4.31v4.32h-4.31zM274.747 71.28h4.31v4.32h-4.31zM282.29 71.28h4.31v4.32h-4.31zM289.832 71.28h4.31v4.32h-4.31zM297.374 71.28h4.31v4.32h-4.31zM304.916 71.28h4.31v4.32h-4.31zM274.747 78.84h4.31v4.32h-4.31zM282.29 78.84h4.31v4.32h-4.31zM289.832 78.84h4.31v4.32h-4.31zM297.374 78.84h4.31v4.32h-4.31zM304.916 78.84h4.31v4.32h-4.31zM274.747 86.4h4.31v4.32h-4.31zM282.29 86.4h4.31v4.32h-4.31zM289.832 86.4h4.31v4.32h-4.31zM297.374 86.4h4.31v4.32h-4.31zM304.916 86.4h4.31v4.32h-4.31zM274.747 93.96h4.31v4.32h-4.31zM282.29 93.96h4.31v4.32h-4.31zM289.832 93.96h4.31v4.32h-4.31zM297.374 93.96h4.31v4.32h-4.31zM304.916 93.96h4.31v4.32h-4.31zM161.616 101.52h4.31v4.32h-4.31zM169.158 101.52h4.31v4.32h-4.31zM176.7 101.52h4.31v4.32h-4.31zM184.242 101.52h4.31v4.32h-4.31zM191.785 101.52h4.31v4.32h-4.31zM161.616 109.08h4.31v4.32h-4.31zM169.158 109.08h4.31v4.32h-4.31zM176.7 109.08h4.31v4.32h-4.31zM184.242 109.08h4.31v4.32h-4.31zM191.785 109.08h4.31v4.32h-4.31zM161.616 116.64h4.31v4.32h-4.31zM169.158 116.64h4.31v4.32h-4.31zM176.7 116.64h4.31v4.32h-4.31zM184.242 116.64h4.31v4.32h-4.31zM191.785 116.64h4.31v4.32h-4.31zM161.616 124.2h4.31v4.32h-4.31zM169.158 124.2h4.31v4.32h-4.31zM176.7 124.2h4.31v4.32h-4.31zM184.242 124.2h4.31v4.32h-4.31zM191.785 124.2h4.31v4.32h-4.31zM161.616 131.76h4.31v4.32h-4.31zM169.158 131.76h4.31v4.32h-4.31zM176.7 131.76h4.31v4.32h-4.31zM184.242 131.76h4.31v4.32h-4.31zM191.785 131.76h4.31v4.32h-4.31zM161.616 139.32h4.31v4.32h-4.31zM169.158 139.32h4.31v4.32h-4.31zM176.7 139.32h4.31v4.32h-4.31zM184.242 139.32h4.31v4.32h-4.31zM191.785 139.32h4.31v4.32h-4.31zM199.327 101.52h4.31v4.32h-4.31zM206.869 101.52h4.31v4.32h-4.31zM214.411 101.52h4.31v4.32h-4.31zM221.953 101.52h4.31v4.32h-4.31zM229.495 101.52h4.31v4.32h-4.31zM199.327 109.08h4.31v4.32h-4.31zM206.869 109.08h4.31v4.32h-4.31zM214.411 109.08h4.31v4.32h-4.31zM221.953 109.08h4.31v4.32h-4.31zM229.495 109.08h4.31v4.32h-4.31zM199.327 116.64h4.31v4.32h-4.31zM206.869 116.64h4.31v4.32h-4.31zM214.411 116.64h4.31v4.32h-4.31zM221.953 116.64h4.31v4.32h-4.31zM229.495 116.64h4.31v4.32h-4.31zM199.327 124.2h4.31v4.32h-4.31zM206.869 124.2h4.31v4.32h-4.31zM214.411 124.2h4.31v4.32h-4.31zM221.953 124.2h4.31v4.32h-4.31zM229.495 124.2h4.31v4.32h-4.31zM199.327 131.76h4.31v4.32h-4.31zM206.869 131.76h4.31v4.32h-4.31zM214.411 131.76h4.31v4.32h-4.31zM221.953 131.76h4.31v4.32h-4.31zM229.495 131.76h4.31v4.32h-4.31zM199.327 139.32h4.31v4.32h-4.31zM206.869 139.32h4.31v4.32h-4.31zM214.411 139.32h4.31v4.32h-4.31zM221.953 139.32h4.31v4.32h-4.31zM229.495 139.32h4.31v4.32h-4.31zM161.616 146.88h4.31v4.32h-4.31zM169.158 146.88h4.31v4.32h-4.31zM176.7 146.88h4.31v4.32h-4.31zM184.242 146.88h4.31v4.32h-4.31zM191.785 146.88h4.31v4.32h-4.31zM161.616 154.44h4.31v4.32h-4.31zM169.158 154.44h4.31v4.32h-4.31zM176.7 154.44h4.31v4.32h-4.31zM184.242 154.44h4.31v4.32h-4.31zM191.785 154.44h4.31v4.32h-4.31zM161.616 162h4.31v4.32h-4.31zM169.158 162h4.31v4.32h-4.31zM176.7 162h4.31v4.32h-4.31zM184.242 162h4.31v4.32h-4.31zM191.785 162h4.31v4.32h-4.31zM161.616 169.56h4.31v4.32h-4.31zM169.158 169.56h4.31v4.32h-4.31zM176.7 169.56h4.31v4.32h-4.31zM184.242 169.56h4.31v4.32h-4.31zM191.785 169.56h4.31v4.32h-4.31zM161.616 177.12h4.31v4.32h-4.31zM169.158 177.12h4.31v4.32h-4.31zM176.7 177.12h4.31v4.32h-4.31zM184.242 177.12h4.31v4.32h-4.31zM191.785 177.12h4.31v4.32h-4.31zM161.616 184.68h4.31V189h-4.31zM169.158 184.68h4.31V189h-4.31zM176.7 184.68h4.31V189h-4.31zM184.242 184.68h4.31V189h-4.31zM191.785 184.68h4.31V189h-4.31zM199.327 146.88h4.31v4.32h-4.31zM206.869 146.88h4.31v4.32h-4.31zM214.411 146.88h4.31v4.32h-4.31zM221.953 146.88h4.31v4.32h-4.31zM229.495 146.88h4.31v4.32h-4.31zM199.327 154.44h4.31v4.32h-4.31zM206.869 154.44h4.31v4.32h-4.31zM214.411 154.44h4.31v4.32h-4.31zM221.953 154.44h4.31v4.32h-4.31zM229.495 154.44h4.31v4.32h-4.31zM199.327 162h4.31v4.32h-4.31zM206.869 162h4.31v4.32h-4.31zM214.411 162h4.31v4.32h-4.31zM221.953 162h4.31v4.32h-4.31zM229.495 162h4.31v4.32h-4.31zM199.327 169.56h4.31v4.32h-4.31zM206.869 169.56h4.31v4.32h-4.31zM214.411 169.56h4.31v4.32h-4.31zM221.953 169.56h4.31v4.32h-4.31zM229.495 169.56h4.31v4.32h-4.31zM199.327 177.12h4.31v4.32h-4.31zM206.869 177.12h4.31v4.32h-4.31zM214.411 177.12h4.31v4.32h-4.31zM221.953 177.12h4.31v4.32h-4.31zM229.495 177.12h4.31v4.32h-4.31zM199.327 184.68h4.31V189h-4.31zM206.869 184.68h4.31V189h-4.31zM214.411 184.68h4.31V189h-4.31zM221.953 184.68h4.31V189h-4.31zM229.495 184.68h4.31V189h-4.31zM237.037 101.52h4.31v4.32h-4.31zM244.579 101.52h4.31v4.32h-4.31zM252.121 101.52h4.31v4.32h-4.31zM259.663 101.52h4.31v4.32h-4.31zM267.205 101.52h4.31v4.32h-4.31zM237.037 109.08h4.31v4.32h-4.31zM244.579 109.08h4.31v4.32h-4.31zM252.121 109.08h4.31v4.32h-4.31zM259.663 109.08h4.31v4.32h-4.31zM267.205 109.08h4.31v4.32h-4.31zM237.037 116.64h4.31v4.32h-4.31zM244.579 116.64h4.31v4.32h-4.31zM252.121 116.64h4.31v4.32h-4.31zM259.663 116.64h4.31v4.32h-4.31zM267.205 116.64h4.31v4.32h-4.31zM237.037 124.2h4.31v4.32h-4.31zM244.579 124.2h4.31v4.32h-4.31zM252.121 124.2h4.31v4.32h-4.31zM259.663 124.2h4.31v4.32h-4.31zM267.205 124.2h4.31v4.32h-4.31zM237.037 131.76h4.31v4.32h-4.31zM244.579 131.76h4.31v4.32h-4.31zM252.121 131.76h4.31v4.32h-4.31zM259.663 131.76h4.31v4.32h-4.31zM267.205 131.76h4.31v4.32h-4.31zM237.037 139.32h4.31v4.32h-4.31zM244.579 139.32h4.31v4.32h-4.31zM252.121 139.32h4.31v4.32h-4.31zM259.663 139.32h4.31v4.32h-4.31zM267.205 139.32h4.31v4.32h-4.31zM274.747 101.52h4.31v4.32h-4.31zM282.29 101.52h4.31v4.32h-4.31zM289.832 101.52h4.31v4.32h-4.31zM297.374 101.52h4.31v4.32h-4.31zM304.916 101.52h4.31v4.32h-4.31zM274.747 109.08h4.31v4.32h-4.31zM282.29 109.08h4.31v4.32h-4.31zM289.832 109.08h4.31v4.32h-4.31zM297.374 109.08h4.31v4.32h-4.31zM304.916 109.08h4.31v4.32h-4.31zM274.747 116.64h4.31v4.32h-4.31zM282.29 116.64h4.31v4.32h-4.31zM289.832 116.64h4.31v4.32h-4.31zM297.374 116.64h4.31v4.32h-4.31zM304.916 116.64h4.31v4.32h-4.31zM274.747 124.2h4.31v4.32h-4.31zM282.29 124.2h4.31v4.32h-4.31zM289.832 124.2h4.31v4.32h-4.31zM297.374 124.2h4.31v4.32h-4.31zM304.916 124.2h4.31v4.32h-4.31zM274.747 131.76h4.31v4.32h-4.31zM282.29 131.76h4.31v4.32h-4.31zM289.832 131.76h4.31v4.32h-4.31zM297.374 131.76h4.31v4.32h-4.31zM304.916 131.76h4.31v4.32h-4.31zM274.747 139.32h4.31v4.32h-4.31zM282.29 139.32h4.31v4.32h-4.31zM289.832 139.32h4.31v4.32h-4.31zM297.374 139.32h4.31v4.32h-4.31zM304.916 139.32h4.31v4.32h-4.31zM237.037 146.88h4.31v4.32h-4.31zM244.579 146.88h4.31v4.32h-4.31zM252.121 146.88h4.31v4.32h-4.31zM259.663 146.88h4.31v4.32h-4.31zM267.205 146.88h4.31v4.32h-4.31zM237.037 154.44h4.31v4.32h-4.31zM244.579 154.44h4.31v4.32h-4.31zM252.121 154.44h4.31v4.32h-4.31zM259.663 154.44h4.31v4.32h-4.31zM267.205 154.44h4.31v4.32h-4.31zM237.037 162h4.31v4.32h-4.31zM244.579 162h4.31v4.32h-4.31zM252.121 162h4.31v4.32h-4.31zM259.663 162h4.31v4.32h-4.31zM267.205 162h4.31v4.32h-4.31zM237.037 169.56h4.31v4.32h-4.31zM244.579 169.56h4.31v4.32h-4.31zM252.121 169.56h4.31v4.32h-4.31zM259.663 169.56h4.31v4.32h-4.31zM267.205 169.56h4.31v4.32h-4.31zM237.037 177.12h4.31v4.32h-4.31zM244.579 177.12h4.31v4.32h-4.31zM252.121 177.12h4.31v4.32h-4.31zM259.663 177.12h4.31v4.32h-4.31zM267.205 177.12h4.31v4.32h-4.31zM237.037 184.68h4.31V189h-4.31zM244.579 184.68h4.31V189h-4.31zM252.121 184.68h4.31V189h-4.31zM259.663 184.68h4.31V189h-4.31zM267.205 184.68h4.31V189h-4.31zM274.747 146.88h4.31v4.32h-4.31zM282.29 146.88h4.31v4.32h-4.31zM289.832 146.88h4.31v4.32h-4.31zM297.374 146.88h4.31v4.32h-4.31zM304.916 146.88h4.31v4.32h-4.31zM274.747 154.44h4.31v4.32h-4.31zM282.29 154.44h4.31v4.32h-4.31zM289.832 154.44h4.31v4.32h-4.31zM297.374 154.44h4.31v4.32h-4.31zM304.916 154.44h4.31v4.32h-4.31zM274.747 162h4.31v4.32h-4.31zM282.29 162h4.31v4.32h-4.31zM289.832 162h4.31v4.32h-4.31zM297.374 162h4.31v4.32h-4.31zM304.916 162h4.31v4.32h-4.31zM274.747 169.56h4.31v4.32h-4.31zM282.29 169.56h4.31v4.32h-4.31zM289.832 169.56h4.31v4.32h-4.31zM297.374 169.56h4.31v4.32h-4.31zM304.916 169.56h4.31v4.32h-4.31zM274.747 177.12h4.31v4.32h-4.31zM282.29 177.12h4.31v4.32h-4.31zM289.832 177.12h4.31v4.32h-4.31zM297.374 177.12h4.31v4.32h-4.31zM304.916 177.12h4.31v4.32h-4.31zM274.747 184.68h4.31V189h-4.31zM282.29 184.68h4.31V189h-4.31zM289.832 184.68h4.31V189h-4.31zM297.374 184.68h4.31V189h-4.31zM304.916 184.68h4.31V189h-4.31zM161.616 192.24h4.31v4.32h-4.31zM169.158 192.24h4.31v4.32h-4.31zM176.7 192.24h4.31v4.32h-4.31zM184.242 192.24h4.31v4.32h-4.31zM191.785 192.24h4.31v4.32h-4.31zM161.616 199.8h4.31v4.32h-4.31zM169.158 199.8h4.31v4.32h-4.31zM176.7 199.8h4.31v4.32h-4.31zM184.242 199.8h4.31v4.32h-4.31zM191.785 199.8h4.31v4.32h-4.31zM161.616 207.36h4.31v4.32h-4.31zM169.158 207.36h4.31v4.32h-4.31zM176.7 207.36h4.31v4.32h-4.31zM184.242 207.36h4.31v4.32h-4.31zM191.785 207.36h4.31v4.32h-4.31zM161.616 214.92h4.31v4.32h-4.31zM169.158 214.92h4.31v4.32h-4.31zM176.7 214.92h4.31v4.32h-4.31zM184.242 214.92h4.31v4.32h-4.31zM191.785 214.92h4.31v4.32h-4.31zM161.616 222.48h4.31v4.32h-4.31zM169.158 222.48h4.31v4.32h-4.31zM176.7 222.48h4.31v4.32h-4.31zM184.242 222.48h4.31v4.32h-4.31zM191.785 222.48h4.31v4.32h-4.31zM161.616 230.04h4.31v4.32h-4.31zM169.158 230.04h4.31v4.32h-4.31zM176.7 230.04h4.31v4.32h-4.31zM184.242 230.04h4.31v4.32h-4.31zM191.785 230.04h4.31v4.32h-4.31zM199.327 192.24h4.31v4.32h-4.31zM206.869 192.24h4.31v4.32h-4.31zM214.411 192.24h4.31v4.32h-4.31zM221.953 192.24h4.31v4.32h-4.31zM229.495 192.24h4.31v4.32h-4.31zM199.327 199.8h4.31v4.32h-4.31zM206.869 199.8h4.31v4.32h-4.31zM214.411 199.8h4.31v4.32h-4.31zM221.953 199.8h4.31v4.32h-4.31zM229.495 199.8h4.31v4.32h-4.31zM199.327 207.36h4.31v4.32h-4.31zM206.869 207.36h4.31v4.32h-4.31zM214.411 207.36h4.31v4.32h-4.31zM221.953 207.36h4.31v4.32h-4.31zM229.495 207.36h4.31v4.32h-4.31zM199.327 214.92h4.31v4.32h-4.31zM206.869 214.92h4.31v4.32h-4.31zM214.411 214.92h4.31v4.32h-4.31zM221.953 214.92h4.31v4.32h-4.31zM229.495 214.92h4.31v4.32h-4.31zM199.327 222.48h4.31v4.32h-4.31zM206.869 222.48h4.31v4.32h-4.31zM214.411 222.48h4.31v4.32h-4.31zM221.953 222.48h4.31v4.32h-4.31zM229.495 222.48h4.31v4.32h-4.31zM199.327 230.04h4.31v4.32h-4.31zM206.869 230.04h4.31v4.32h-4.31zM214.411 230.04h4.31v4.32h-4.31zM221.953 230.04h4.31v4.32h-4.31zM229.495 230.04h4.31v4.32h-4.31zM161.616 237.6h4.31v4.32h-4.31zM169.158 237.6h4.31v4.32h-4.31zM176.7 237.6h4.31v4.32h-4.31zM184.242 237.6h4.31v4.32h-4.31zM191.785 237.6h4.31v4.32h-4.31zM161.616 245.16h4.31v4.32h-4.31zM169.158 245.16h4.31v4.32h-4.31zM176.7 245.16h4.31v4.32h-4.31zM184.242 245.16h4.31v4.32h-4.31zM191.785 245.16h4.31v4.32h-4.31zM161.616 252.72h4.31v4.32h-4.31zM169.158 252.72h4.31v4.32h-4.31zM176.7 252.72h4.31v4.32h-4.31zM184.242 252.72h4.31v4.32h-4.31zM191.785 252.72h4.31v4.32h-4.31zM161.616 260.28h4.31v4.32h-4.31zM169.158 260.28h4.31v4.32h-4.31zM176.7 260.28h4.31v4.32h-4.31zM184.242 260.28h4.31v4.32h-4.31zM191.785 260.28h4.31v4.32h-4.31zM161.616 267.84h4.31v4.32h-4.31zM169.158 267.84h4.31v4.32h-4.31zM176.7 267.84h4.31v4.32h-4.31zM184.242 267.84h4.31v4.32h-4.31zM191.785 267.84h4.31v4.32h-4.31zM161.616 275.4h4.31v4.32h-4.31zM169.158 275.4h4.31v4.32h-4.31zM176.7 275.4h4.31v4.32h-4.31zM184.242 275.4h4.31v4.32h-4.31zM191.785 275.4h4.31v4.32h-4.31zM199.327 237.6h4.31v4.32h-4.31zM206.869 237.6h4.31v4.32h-4.31zM214.411 237.6h4.31v4.32h-4.31zM221.953 237.6h4.31v4.32h-4.31zM229.495 237.6h4.31v4.32h-4.31zM199.327 245.16h4.31v4.32h-4.31zM206.869 245.16h4.31v4.32h-4.31zM214.411 245.16h4.31v4.32h-4.31zM221.953 245.16h4.31v4.32h-4.31zM229.495 245.16h4.31v4.32h-4.31zM199.327 252.72h4.31v4.32h-4.31zM206.869 252.72h4.31v4.32h-4.31zM214.411 252.72h4.31v4.32h-4.31zM221.953 252.72h4.31v4.32h-4.31zM229.495 252.72h4.31v4.32h-4.31zM199.327 260.28h4.31v4.32h-4.31zM206.869 260.28h4.31v4.32h-4.31zM214.411 260.28h4.31v4.32h-4.31zM221.953 260.28h4.31v4.32h-4.31zM229.495 260.28h4.31v4.32h-4.31zM199.327 267.84h4.31v4.32h-4.31zM206.869 267.84h4.31v4.32h-4.31zM214.411 267.84h4.31v4.32h-4.31zM221.953 267.84h4.31v4.32h-4.31zM229.495 267.84h4.31v4.32h-4.31zM199.327 275.4h4.31v4.32h-4.31zM206.869 275.4h4.31v4.32h-4.31zM214.411 275.4h4.31v4.32h-4.31zM221.953 275.4h4.31v4.32h-4.31zM229.495 275.4h4.31v4.32h-4.31zM237.037 192.24h4.31v4.32h-4.31zM244.579 192.24h4.31v4.32h-4.31zM252.121 192.24h4.31v4.32h-4.31zM259.663 192.24h4.31v4.32h-4.31zM267.205 192.24h4.31v4.32h-4.31zM237.037 199.8h4.31v4.32h-4.31zM244.579 199.8h4.31v4.32h-4.31zM252.121 199.8h4.31v4.32h-4.31zM259.663 199.8h4.31v4.32h-4.31zM267.205 199.8h4.31v4.32h-4.31zM237.037 207.36h4.31v4.32h-4.31zM244.579 207.36h4.31v4.32h-4.31zM252.121 207.36h4.31v4.32h-4.31zM259.663 207.36h4.31v4.32h-4.31zM267.205 207.36h4.31v4.32h-4.31zM237.037 214.92h4.31v4.32h-4.31zM244.579 214.92h4.31v4.32h-4.31zM252.121 214.92h4.31v4.32h-4.31zM259.663 214.92h4.31v4.32h-4.31zM267.205 214.92h4.31v4.32h-4.31zM237.037 222.48h4.31v4.32h-4.31zM244.579 222.48h4.31v4.32h-4.31zM252.121 222.48h4.31v4.32h-4.31zM259.663 222.48h4.31v4.32h-4.31zM267.205 222.48h4.31v4.32h-4.31zM237.037 230.04h4.31v4.32h-4.31zM244.579 230.04h4.31v4.32h-4.31zM252.121 230.04h4.31v4.32h-4.31zM259.663 230.04h4.31v4.32h-4.31zM267.205 230.04h4.31v4.32h-4.31zM274.747 192.24h4.31v4.32h-4.31zM282.29 192.24h4.31v4.32h-4.31zM289.832 192.24h4.31v4.32h-4.31zM297.374 192.24h4.31v4.32h-4.31zM304.916 192.24h4.31v4.32h-4.31zM274.747 199.8h4.31v4.32h-4.31zM282.29 199.8h4.31v4.32h-4.31zM289.832 199.8h4.31v4.32h-4.31zM297.374 199.8h4.31v4.32h-4.31zM304.916 199.8h4.31v4.32h-4.31zM274.747 207.36h4.31v4.32h-4.31zM282.29 207.36h4.31v4.32h-4.31zM289.832 207.36h4.31v4.32h-4.31zM297.374 207.36h4.31v4.32h-4.31zM304.916 207.36h4.31v4.32h-4.31zM274.747 214.92h4.31v4.32h-4.31zM282.29 214.92h4.31v4.32h-4.31zM289.832 214.92h4.31v4.32h-4.31zM297.374 214.92h4.31v4.32h-4.31zM304.916 214.92h4.31v4.32h-4.31zM274.747 222.48h4.31v4.32h-4.31zM282.29 222.48h4.31v4.32h-4.31zM289.832 222.48h4.31v4.32h-4.31zM297.374 222.48h4.31v4.32h-4.31zM304.916 222.48h4.31v4.32h-4.31zM274.747 230.04h4.31v4.32h-4.31zM282.29 230.04h4.31v4.32h-4.31zM289.832 230.04h4.31v4.32h-4.31zM297.374 230.04h4.31v4.32h-4.31zM304.916 230.04h4.31v4.32h-4.31zM237.037 237.6h4.31v4.32h-4.31zM244.579 237.6h4.31v4.32h-4.31zM252.121 237.6h4.31v4.32h-4.31zM259.663 237.6h4.31v4.32h-4.31zM267.205 237.6h4.31v4.32h-4.31zM237.037 245.16h4.31v4.32h-4.31zM244.579 245.16h4.31v4.32h-4.31zM252.121 245.16h4.31v4.32h-4.31zM259.663 245.16h4.31v4.32h-4.31zM267.205 245.16h4.31v4.32h-4.31zM237.037 252.72h4.31v4.32h-4.31zM244.579 252.72h4.31v4.32h-4.31zM252.121 252.72h4.31v4.32h-4.31zM259.663 252.72h4.31v4.32h-4.31zM267.205 252.72h4.31v4.32h-4.31zM237.037 260.28h4.31v4.32h-4.31zM244.579 260.28h4.31v4.32h-4.31zM252.121 260.28h4.31v4.32h-4.31zM259.663 260.28h4.31v4.32h-4.31zM267.205 260.28h4.31v4.32h-4.31zM237.037 267.84h4.31v4.32h-4.31zM244.579 267.84h4.31v4.32h-4.31zM252.121 267.84h4.31v4.32h-4.31zM259.663 267.84h4.31v4.32h-4.31zM267.205 267.84h4.31v4.32h-4.31zM237.037 275.4h4.31v4.32h-4.31zM244.579 275.4h4.31v4.32h-4.31zM252.121 275.4h4.31v4.32h-4.31zM259.663 275.4h4.31v4.32h-4.31zM267.205 275.4h4.31v4.32h-4.31zM274.747 237.6h4.31v4.32h-4.31zM282.29 237.6h4.31v4.32h-4.31zM289.832 237.6h4.31v4.32h-4.31zM297.374 237.6h4.31v4.32h-4.31zM304.916 237.6h4.31v4.32h-4.31zM274.747 245.16h4.31v4.32h-4.31zM282.29 245.16h4.31v4.32h-4.31zM289.832 245.16h4.31v4.32h-4.31zM297.374 245.16h4.31v4.32h-4.31zM304.916 245.16h4.31v4.32h-4.31zM274.747 252.72h4.31v4.32h-4.31zM282.29 252.72h4.31v4.32h-4.31zM289.832 252.72h4.31v4.32h-4.31zM297.374 252.72h4.31v4.32h-4.31zM304.916 252.72h4.31v4.32h-4.31zM274.747 260.28h4.31v4.32h-4.31zM282.29 260.28h4.31v4.32h-4.31zM289.832 260.28h4.31v4.32h-4.31zM297.374 260.28h4.31v4.32h-4.31zM304.916 260.28h4.31v4.32h-4.31zM274.747 267.84h4.31v4.32h-4.31zM282.29 267.84h4.31v4.32h-4.31zM289.832 267.84h4.31v4.32h-4.31zM297.374 267.84h4.31v4.32h-4.31zM304.916 267.84h4.31v4.32h-4.31zM274.747 275.4h4.31v4.32h-4.31zM282.29 275.4h4.31v4.32h-4.31zM289.832 275.4h4.31v4.32h-4.31zM297.374 275.4h4.31v4.32h-4.31zM304.916 275.4h4.31v4.32h-4.31zM10.774 282.96h4.31v4.32h-4.31zM18.316 282.96h4.31v4.32h-4.31zM25.859 282.96h4.31v4.32h-4.31zM33.401 282.96h4.31v4.32h-4.31zM40.943 282.96h4.31v4.32h-4.31zM10.774 290.52h4.31v4.32h-4.31zM18.316 290.52h4.31v4.32h-4.31zM25.859 290.52h4.31v4.32h-4.31zM33.401 290.52h4.31v4.32h-4.31zM40.943 290.52h4.31v4.32h-4.31zM48.485 282.96h4.31v4.32h-4.31zM56.027 282.96h4.31v4.32h-4.31zM63.569 282.96h4.31v4.32h-4.31zM71.111 282.96h4.31v4.32h-4.31zM78.653 282.96h4.31v4.32h-4.31zM48.485 290.52h4.31v4.32h-4.31zM56.027 290.52h4.31v4.32h-4.31zM63.569 290.52h4.31v4.32h-4.31zM71.111 290.52h4.31v4.32h-4.31zM78.653 290.52h4.31v4.32h-4.31zM10.774 298.08h4.31v4.32h-4.31zM18.316 298.08h4.31v4.32h-4.31zM25.859 298.08h4.31v4.32h-4.31zM33.401 298.08h4.31v4.32h-4.31zM40.943 298.08h4.31v4.32h-4.31zM10.774 305.64h4.31v4.32h-4.31zM18.316 305.64h4.31v4.32h-4.31zM25.859 305.64h4.31v4.32h-4.31zM33.401 305.64h4.31v4.32h-4.31zM40.943 305.64h4.31v4.32h-4.31zM10.774 313.2h4.31v4.32h-4.31zM18.316 313.2h4.31v4.32h-4.31zM25.859 313.2h4.31v4.32h-4.31zM33.401 313.2h4.31v4.32h-4.31zM40.943 313.2h4.31v4.32h-4.31zM10.774 320.76h4.31v4.32h-4.31zM18.316 320.76h4.31v4.32h-4.31zM25.859 320.76h4.31v4.32h-4.31zM33.401 320.76h4.31v4.32h-4.31zM40.943 320.76h4.31v4.32h-4.31zM10.774 328.32h4.31v4.32h-4.31zM18.316 328.32h4.31v4.32h-4.31zM25.859 328.32h4.31v4.32h-4.31zM33.401 328.32h4.31v4.32h-4.31zM40.943 328.32h4.31v4.32h-4.31zM10.774 335.88h4.31v4.32h-4.31zM18.316 335.88h4.31v4.32h-4.31zM25.859 335.88h4.31v4.32h-4.31zM33.401 335.88h4.31v4.32h-4.31zM40.943 335.88h4.31v4.32h-4.31zM48.485 298.08h4.31v4.32h-4.31zM56.027 298.08h4.31v4.32h-4.31zM63.569 298.08h4.31v4.32h-4.31zM71.111 298.08h4.31v4.32h-4.31zM78.653 298.08h4.31v4.32h-4.31zM48.485 305.64h4.31v4.32h-4.31zM56.027 305.64h4.31v4.32h-4.31zM63.569 305.64h4.31v4.32h-4.31zM71.111 305.64h4.31v4.32h-4.31zM78.653 305.64h4.31v4.32h-4.31zM48.485 313.2h4.31v4.32h-4.31zM56.027 313.2h4.31v4.32h-4.31zM63.569 313.2h4.31v4.32h-4.31zM71.111 313.2h4.31v4.32h-4.31zM78.653 313.2h4.31v4.32h-4.31zM48.485 320.76h4.31v4.32h-4.31zM56.027 320.76h4.31v4.32h-4.31zM63.569 320.76h4.31v4.32h-4.31zM71.111 320.76h4.31v4.32h-4.31zM78.653 320.76h4.31v4.32h-4.31zM48.485 328.32h4.31v4.32h-4.31zM56.027 328.32h4.31v4.32h-4.31zM63.569 328.32h4.31v4.32h-4.31zM71.111 328.32h4.31v4.32h-4.31zM78.653 328.32h4.31v4.32h-4.31zM48.485 335.88h4.31v4.32h-4.31zM56.027 335.88h4.31v4.32h-4.31zM63.569 335.88h4.31v4.32h-4.31zM71.111 335.88h4.31v4.32h-4.31zM78.653 335.88h4.31v4.32h-4.31zM86.195 282.96h4.31v4.32h-4.31zM93.737 282.96h4.31v4.32h-4.31zM101.279 282.96h4.31v4.32h-4.31zM108.822 282.96h4.31v4.32h-4.31zM116.364 282.96h4.31v4.32h-4.31zM86.195 290.52h4.31v4.32h-4.31zM93.737 290.52h4.31v4.32h-4.31zM101.279 290.52h4.31v4.32h-4.31zM108.822 290.52h4.31v4.32h-4.31zM116.364 290.52h4.31v4.32h-4.31zM123.906 282.96h4.31v4.32h-4.31zM131.448 282.96h4.31v4.32h-4.31zM138.99 282.96h4.31v4.32h-4.31zM146.532 282.96h4.31v4.32h-4.31zM154.074 282.96h4.31v4.32h-4.31zM123.906 290.52h4.31v4.32h-4.31zM131.448 290.52h4.31v4.32h-4.31zM138.99 290.52h4.31v4.32h-4.31zM146.532 290.52h4.31v4.32h-4.31zM154.074 290.52h4.31v4.32h-4.31zM86.195 298.08h4.31v4.32h-4.31zM93.737 298.08h4.31v4.32h-4.31zM101.279 298.08h4.31v4.32h-4.31zM108.822 298.08h4.31v4.32h-4.31zM116.364 298.08h4.31v4.32h-4.31zM86.195 305.64h4.31v4.32h-4.31zM93.737 305.64h4.31v4.32h-4.31zM101.279 305.64h4.31v4.32h-4.31zM108.822 305.64h4.31v4.32h-4.31zM116.364 305.64h4.31v4.32h-4.31zM86.195 313.2h4.31v4.32h-4.31zM93.737 313.2h4.31v4.32h-4.31zM101.279 313.2h4.31v4.32h-4.31zM108.822 313.2h4.31v4.32h-4.31zM116.364 313.2h4.31v4.32h-4.31zM86.195 320.76h4.31v4.32h-4.31zM93.737 320.76h4.31v4.32h-4.31zM101.279 320.76h4.31v4.32h-4.31zM108.822 320.76h4.31v4.32h-4.31zM116.364 320.76h4.31v4.32h-4.31zM86.195 328.32h4.31v4.32h-4.31zM93.737 328.32h4.31v4.32h-4.31zM101.279 328.32h4.31v4.32h-4.31zM108.822 328.32h4.31v4.32h-4.31zM116.364 328.32h4.31v4.32h-4.31zM86.195 335.88h4.31v4.32h-4.31zM93.737 335.88h4.31v4.32h-4.31zM101.279 335.88h4.31v4.32h-4.31zM108.822 335.88h4.31v4.32h-4.31zM116.364 335.88h4.31v4.32h-4.31zM123.906 298.08h4.31v4.32h-4.31zM131.448 298.08h4.31v4.32h-4.31zM138.99 298.08h4.31v4.32h-4.31zM146.532 298.08h4.31v4.32h-4.31zM154.074 298.08h4.31v4.32h-4.31zM123.906 305.64h4.31v4.32h-4.31zM131.448 305.64h4.31v4.32h-4.31zM138.99 305.64h4.31v4.32h-4.31zM146.532 305.64h4.31v4.32h-4.31zM154.074 305.64h4.31v4.32h-4.31zM123.906 313.2h4.31v4.32h-4.31zM131.448 313.2h4.31v4.32h-4.31zM138.99 313.2h4.31v4.32h-4.31zM146.532 313.2h4.31v4.32h-4.31zM154.074 313.2h4.31v4.32h-4.31zM123.906 320.76h4.31v4.32h-4.31zM131.448 320.76h4.31v4.32h-4.31zM138.99 320.76h4.31v4.32h-4.31zM146.532 320.76h4.31v4.32h-4.31zM154.074 320.76h4.31v4.32h-4.31zM123.906 328.32h4.31v4.32h-4.31zM131.448 328.32h4.31v4.32h-4.31zM138.99 328.32h4.31v4.32h-4.31zM146.532 328.32h4.31v4.32h-4.31zM154.074 328.32h4.31v4.32h-4.31zM123.906 335.88h4.31v4.32h-4.31zM131.448 335.88h4.31v4.32h-4.31zM138.99 335.88h4.31v4.32h-4.31zM146.532 335.88h4.31v4.32h-4.31zM154.074 335.88h4.31v4.32h-4.31zM161.616 282.96h4.31v4.32h-4.31zM169.158 282.96h4.31v4.32h-4.31zM176.7 282.96h4.31v4.32h-4.31zM184.242 282.96h4.31v4.32h-4.31zM191.785 282.96h4.31v4.32h-4.31zM161.616 290.52h4.31v4.32h-4.31zM169.158 290.52h4.31v4.32h-4.31zM176.7 290.52h4.31v4.32h-4.31zM184.242 290.52h4.31v4.32h-4.31zM191.785 290.52h4.31v4.32h-4.31zM199.327 282.96h4.31v4.32h-4.31zM206.869 282.96h4.31v4.32h-4.31zM214.411 282.96h4.31v4.32h-4.31zM221.953 282.96h4.31v4.32h-4.31zM229.495 282.96h4.31v4.32h-4.31zM199.327 290.52h4.31v4.32h-4.31zM206.869 290.52h4.31v4.32h-4.31zM214.411 290.52h4.31v4.32h-4.31zM221.953 290.52h4.31v4.32h-4.31zM229.495 290.52h4.31v4.32h-4.31zM161.616 298.08h4.31v4.32h-4.31zM169.158 298.08h4.31v4.32h-4.31zM176.7 298.08h4.31v4.32h-4.31zM184.242 298.08h4.31v4.32h-4.31zM191.785 298.08h4.31v4.32h-4.31zM161.616 305.64h4.31v4.32h-4.31zM169.158 305.64h4.31v4.32h-4.31zM176.7 305.64h4.31v4.32h-4.31zM184.242 305.64h4.31v4.32h-4.31zM191.785 305.64h4.31v4.32h-4.31zM161.616 313.2h4.31v4.32h-4.31zM169.158 313.2h4.31v4.32h-4.31zM176.7 313.2h4.31v4.32h-4.31zM184.242 313.2h4.31v4.32h-4.31zM191.785 313.2h4.31v4.32h-4.31zM161.616 320.76h4.31v4.32h-4.31zM169.158 320.76h4.31v4.32h-4.31zM176.7 320.76h4.31v4.32h-4.31zM184.242 320.76h4.31v4.32h-4.31zM191.785 320.76h4.31v4.32h-4.31zM161.616 328.32h4.31v4.32h-4.31zM169.158 328.32h4.31v4.32h-4.31zM176.7 328.32h4.31v4.32h-4.31zM184.242 328.32h4.31v4.32h-4.31zM191.785 328.32h4.31v4.32h-4.31zM161.616 335.88h4.31v4.32h-4.31zM169.158 335.88h4.31v4.32h-4.31zM176.7 335.88h4.31v4.32h-4.31zM184.242 335.88h4.31v4.32h-4.31zM191.785 335.88h4.31v4.32h-4.31zM199.327 298.08h4.31v4.32h-4.31zM206.869 298.08h4.31v4.32h-4.31zM214.411 298.08h4.31v4.32h-4.31zM221.953 298.08h4.31v4.32h-4.31zM229.495 298.08h4.31v4.32h-4.31zM199.327 305.64h4.31v4.32h-4.31zM206.869 305.64h4.31v4.32h-4.31zM214.411 305.64h4.31v4.32h-4.31zM221.953 305.64h4.31v4.32h-4.31zM229.495 305.64h4.31v4.32h-4.31zM199.327 313.2h4.31v4.32h-4.31zM206.869 313.2h4.31v4.32h-4.31zM214.411 313.2h4.31v4.32h-4.31zM221.953 313.2h4.31v4.32h-4.31zM229.495 313.2h4.31v4.32h-4.31zM199.327 320.76h4.31v4.32h-4.31zM206.869 320.76h4.31v4.32h-4.31zM214.411 320.76h4.31v4.32h-4.31zM221.953 320.76h4.31v4.32h-4.31zM229.495 320.76h4.31v4.32h-4.31zM199.327 328.32h4.31v4.32h-4.31zM206.869 328.32h4.31v4.32h-4.31zM214.411 328.32h4.31v4.32h-4.31zM221.953 328.32h4.31v4.32h-4.31zM229.495 328.32h4.31v4.32h-4.31zM199.327 335.88h4.31v4.32h-4.31zM206.869 335.88h4.31v4.32h-4.31zM214.411 335.88h4.31v4.32h-4.31zM221.953 335.88h4.31v4.32h-4.31zM229.495 335.88h4.31v4.32h-4.31zM237.037 282.96h4.31v4.32h-4.31zM244.579 282.96h4.31v4.32h-4.31zM252.121 282.96h4.31v4.32h-4.31zM259.663 282.96h4.31v4.32h-4.31zM267.205 282.96h4.31v4.32h-4.31zM237.037 290.52h4.31v4.32h-4.31zM244.579 290.52h4.31v4.32h-4.31zM252.121 290.52h4.31v4.32h-4.31zM259.663 290.52h4.31v4.32h-4.31zM267.205 290.52h4.31v4.32h-4.31zM274.747 282.96h4.31v4.32h-4.31zM282.29 282.96h4.31v4.32h-4.31zM289.832 282.96h4.31v4.32h-4.31zM297.374 282.96h4.31v4.32h-4.31zM304.916 282.96h4.31v4.32h-4.31zM274.747 290.52h4.31v4.32h-4.31zM282.29 290.52h4.31v4.32h-4.31zM289.832 290.52h4.31v4.32h-4.31zM297.374 290.52h4.31v4.32h-4.31zM304.916 290.52h4.31v4.32h-4.31zM237.037 298.08h4.31v4.32h-4.31zM244.579 298.08h4.31v4.32h-4.31zM252.121 298.08h4.31v4.32h-4.31zM259.663 298.08h4.31v4.32h-4.31zM267.205 298.08h4.31v4.32h-4.31zM237.037 305.64h4.31v4.32h-4.31zM244.579 305.64h4.31v4.32h-4.31zM252.121 305.64h4.31v4.32h-4.31zM259.663 305.64h4.31v4.32h-4.31zM267.205 305.64h4.31v4.32h-4.31zM237.037 313.2h4.31v4.32h-4.31zM244.579 313.2h4.31v4.32h-4.31zM252.121 313.2h4.31v4.32h-4.31zM259.663 313.2h4.31v4.32h-4.31zM267.205 313.2h4.31v4.32h-4.31zM237.037 320.76h4.31v4.32h-4.31zM244.579 320.76h4.31v4.32h-4.31zM252.121 320.76h4.31v4.32h-4.31zM259.663 320.76h4.31v4.32h-4.31zM267.205 320.76h4.31v4.32h-4.31zM237.037 328.32h4.31v4.32h-4.31zM244.579 328.32h4.31v4.32h-4.31zM252.121 328.32h4.31v4.32h-4.31zM259.663 328.32h4.31v4.32h-4.31zM267.205 328.32h4.31v4.32h-4.31zM237.037 335.88h4.31v4.32h-4.31zM244.579 335.88h4.31v4.32h-4.31zM252.121 335.88h4.31v4.32h-4.31zM259.663 335.88h4.31v4.32h-4.31zM267.205 335.88h4.31v4.32h-4.31zM274.747 298.08h4.31v4.32h-4.31zM282.29 298.08h4.31v4.32h-4.31zM289.832 298.08h4.31v4.32h-4.31zM297.374 298.08h4.31v4.32h-4.31zM304.916 298.08h4.31v4.32h-4.31zM274.747 305.64h4.31v4.32h-4.31zM282.29 305.64h4.31v4.32h-4.31zM289.832 305.64h4.31v4.32h-4.31zM297.374 305.64h4.31v4.32h-4.31zM304.916 305.64h4.31v4.32h-4.31zM274.747 313.2h4.31v4.32h-4.31zM282.29 313.2h4.31v4.32h-4.31zM289.832 313.2h4.31v4.32h-4.31zM297.374 313.2h4.31v4.32h-4.31zM304.916 313.2h4.31v4.32h-4.31zM274.747 320.76h4.31v4.32h-4.31zM282.29 320.76h4.31v4.32h-4.31zM289.832 320.76h4.31v4.32h-4.31zM297.374 320.76h4.31v4.32h-4.31zM304.916 320.76h4.31v4.32h-4.31zM274.747 328.32h4.31v4.32h-4.31zM282.29 328.32h4.31v4.32h-4.31zM289.832 328.32h4.31v4.32h-4.31zM297.374 328.32h4.31v4.32h-4.31zM304.916 328.32h4.31v4.32h-4.31zM274.747 335.88h4.31v4.32h-4.31zM282.29 335.88h4.31v4.32h-4.31zM289.832 335.88h4.31v4.32h-4.31zM297.374 335.88h4.31v4.32h-4.31zM304.916 335.88h4.31v4.32h-4.31z"/>
  </g>
</svg>
