<svg width="42" height="52" xmlns="http://www.w3.org/2000/svg">
  <path d="M16.096 0c-2.703 0-4.9 2.206-4.9 4.919v22.289L9.73 24.265c-.84-1.65-2.243-3.331-3.806-3.755-1.32-.365-2.528.107-3.478.66-1.204.709-1.991 1.72-2.297 2.744-.35 1.435-.056 2.88.59 4.458 3.2 7.885 8.094 17.256 13.432 23.386.13.15.326.241.525.242h18.9a.706.706 0 0 0 .415-.154c1.838-1.367 3.427-3.83 4.747-6.807 1.32-2.978 2.38-6.455 2.865-9.838.503-3.513.557-6.655-.175-9.245-.732-2.59-2.37-4.57-4.965-4.875-.907-.008-1.696.056-2.407.461-.24-1.075-.731-1.967-1.421-2.46a4.422 4.422 0 0 0-2.582-.812c-.967.017-1.747.534-2.428 1.252-.283-.775-.677-1.423-1.225-1.822-.88-.642-1.882-.835-2.625-.835-.984 0-1.975.373-2.8.988V4.92c-.06-3.193-2.624-4.937-4.9-4.919zm0 1.406c1.95 0 3.5 1.554 3.5 3.513v14.757c.007.315.247.61.554.675a.721.721 0 0 0 .78-.39c.459-.957 1.817-1.69 2.865-1.69.474 0 1.229.136 1.794.548.566.413 1.006 1.048 1.006 2.262a.722.722 0 0 0 .544.695c.31.072.657-.099.79-.387.635-1.275 1.232-1.697 2.188-1.713.361-.007 1.137.128 1.728.549.591.42 1.05 1.06 1.05 2.262.007.543.788.878 1.181.505.136-.127.51-.304.963-.396.454-.091.972-.11 1.356-.11 1.94.267 3.065 1.606 3.697 3.843.643 2.274.652 5.405.153 8.652-.499 3.248-1.493 6.637-2.756 9.487-1.231 2.777-2.75 4.992-4.2 6.127H15.046c-5.081-5.923-9.874-15.061-12.994-22.75-.663-1.715-.777-2.81-.569-3.558.354-.98 1.017-1.55 1.707-1.932.785-.45 1.558-.706 2.362-.483 1.638.798 2.236 1.799 2.931 3.052l2.778 5.6a.721.721 0 0 0 .791.387.724.724 0 0 0 .544-.695V4.92a3.484 3.484 0 0 1 3.5-3.513z" fill="#FFF" fill-rule="nonzero" opacity=".699"/>
</svg>
